<?xml version="1.0" encoding="UTF-8" standalone="no"?>
<svg width="240.771mm" height="200.29mm"
 xmlns="http://www.w3.org/2000/svg" xmlns:xlink="http://www.w3.org/1999/xlink"  version="1.2" baseProfile="tiny">
<title>BarChart1</title>
<desc>Rendered by Tableau</desc>
<defs>
</defs>
<g fill="none" stroke="black" stroke-width="1" fill-rule="evenodd" stroke-linecap="square" stroke-linejoin="bevel" >

<g >
<g fill="#ffffff" fill-opacity="1" stroke="none" transform="matrix(1,0,0,1,0,0)"
font-family="Segoe UI" font-size="13.3333" font-weight="400" font-style="normal" 
>
<rect x="0" y="0" width="910" height="757"/>
</g>
</g>

<g >
<g fill="#ffffff" fill-opacity="1" stroke="none" transform="matrix(1,0,0,1,0,0)"
font-family="Segoe UI" font-size="13.3333" font-weight="400" font-style="normal" 
>
<rect x="0" y="101" width="910" height="656"/>
</g>
</g>

<clipPath id ="clip1" >
<rect x="-1" y="-1" height="89" width="912" transform="matrix(1,0,0,1,0,670)" />
</clipPath>
<g  clip-path="url(#clip1)" 
>
<g fill="none" stroke="#000000" stroke-opacity="1" stroke-width="1" stroke-linecap="square" stroke-linejoin="bevel" transform="matrix(1,0,0,1,0,670)"
font-family="Segoe UI" font-size="13.3333" font-weight="400" font-style="normal" 
>
</g>
</g>

<g  clip-path="url(#clip1)" 
>
<g fill="none" stroke="#f5f5f5" stroke-opacity="1" stroke-width="1" stroke-linecap="butt" stroke-linejoin="bevel" transform="matrix(1,0,0,1,0,670)"
font-family="Segoe UI" font-size="13.3333" font-weight="400" font-style="normal" 
>
<polyline fill="none" vector-effect="none" points="0,0 0,5 " />
<polyline fill="none" vector-effect="none" points="130,0 130,5 " />
<polyline fill="none" vector-effect="none" points="260,0 260,5 " />
<polyline fill="none" vector-effect="none" points="390,0 390,5 " />
<polyline fill="none" vector-effect="none" points="520,0 520,5 " />
<polyline fill="none" vector-effect="none" points="650,0 650,5 " />
<polyline fill="none" vector-effect="none" points="780,0 780,5 " />
<polyline fill="none" vector-effect="none" points="910,0 910,5 " />
</g>
</g>

<g  clip-path="url(#clip1)" 
>
<g fill="none" stroke="#f5f5f5" stroke-opacity="1" stroke-width="1" stroke-linecap="butt" stroke-linejoin="bevel" transform="matrix(1,0,0,1,0,670)"
font-family="Segoe UI" font-size="13.3333" font-weight="400" font-style="normal" 
>
</g>
</g>

<g  clip-path="url(#clip1)" 
>
<g fill="none" stroke="#4e79a7" stroke-opacity="1" stroke-width="1" stroke-linecap="square" stroke-linejoin="bevel" transform="matrix(1,0,0,1,0,670)"
font-family="Arial" font-size="18" font-weight="400" font-style="normal" 
>
<text fill="#4e79a7" fill-opacity="1" stroke="none" xml:space="preserve" x="8.01563" y="20" font-family="Arial" font-size="18" font-weight="400" font-style="normal" 
 >Bad Company</text>
</g>
</g>

<g  clip-path="url(#clip1)" 
>
<g fill="none" stroke="#4e79a7" stroke-opacity="1" stroke-width="1" stroke-linecap="square" stroke-linejoin="bevel" transform="matrix(1,0,0,1,0,670)"
font-family="Arial" font-size="18" font-weight="400" font-style="normal" 
>
<text fill="#4e79a7" fill-opacity="1" stroke="none" xml:space="preserve" x="164" y="20" font-family="Arial" font-size="18" font-weight="400" font-style="normal" 
 >Chubby</text>
</g>
</g>

<g  clip-path="url(#clip1)" 
>
<g fill="none" stroke="#4e79a7" stroke-opacity="1" stroke-width="1" stroke-linecap="square" stroke-linejoin="bevel" transform="matrix(1,0,0,1,0,670)"
font-family="Arial" font-size="18" font-weight="400" font-style="normal" 
>
<text fill="#4e79a7" fill-opacity="1" stroke="none" xml:space="preserve" x="161.391" y="41" font-family="Arial" font-size="18" font-weight="400" font-style="normal" 
 >Checker</text>
</g>
</g>

<g  clip-path="url(#clip1)" 
>
<g fill="none" stroke="#4e79a7" stroke-opacity="1" stroke-width="1" stroke-linecap="square" stroke-linejoin="bevel" transform="matrix(1,0,0,1,0,670)"
font-family="Arial" font-size="18" font-weight="400" font-style="normal" 
>
<text fill="#4e79a7" fill-opacity="1" stroke="none" xml:space="preserve" x="271.406" y="20" font-family="Arial" font-size="18" font-weight="400" font-style="normal" 
 >Cyndi Lauper</text>
</g>
</g>

<g  clip-path="url(#clip1)" 
>
<g fill="none" stroke="#4e79a7" stroke-opacity="1" stroke-width="1" stroke-linecap="square" stroke-linejoin="bevel" transform="matrix(1,0,0,1,0,670)"
font-family="Arial" font-size="18" font-weight="400" font-style="normal" 
>
<text fill="#4e79a7" fill-opacity="1" stroke="none" xml:space="preserve" x="409.391" y="20" font-family="Arial" font-size="18" font-weight="400" font-style="normal" 
 >Joe Cocker</text>
</g>
</g>

<g  clip-path="url(#clip1)" 
>
<g fill="none" stroke="#4e79a7" stroke-opacity="1" stroke-width="1" stroke-linecap="square" stroke-linejoin="bevel" transform="matrix(1,0,0,1,0,670)"
font-family="Arial" font-size="18" font-weight="400" font-style="normal" 
>
<text fill="#4e79a7" fill-opacity="1" stroke="none" xml:space="preserve" x="554" y="20" font-family="Arial" font-size="18" font-weight="400" font-style="normal" 
 >Outkast</text>
</g>
</g>

<g  clip-path="url(#clip1)" 
>
<g fill="none" stroke="#4e79a7" stroke-opacity="1" stroke-width="1" stroke-linecap="square" stroke-linejoin="bevel" transform="matrix(1,0,0,1,0,670)"
font-family="Arial" font-size="18" font-weight="400" font-style="normal" 
>
<text fill="#4e79a7" fill-opacity="1" stroke="none" xml:space="preserve" x="661" y="20" font-family="Arial" font-size="18" font-weight="400" font-style="normal" 
 >Soundgarden</text>
</g>
</g>

<g  clip-path="url(#clip1)" 
>
<g fill="none" stroke="#4e79a7" stroke-opacity="1" stroke-width="1" stroke-linecap="square" stroke-linejoin="bevel" transform="matrix(1,0,0,1,0,670)"
font-family="Arial" font-size="18" font-weight="400" font-style="normal" 
>
<text fill="#4e79a7" fill-opacity="1" stroke="none" xml:space="preserve" x="804.016" y="20" font-family="Arial" font-size="18" font-weight="400" font-style="normal" 
 >The White</text>
</g>
</g>

<g  clip-path="url(#clip1)" 
>
<g fill="none" stroke="#4e79a7" stroke-opacity="1" stroke-width="1" stroke-linecap="square" stroke-linejoin="bevel" transform="matrix(1,0,0,1,0,670)"
font-family="Arial" font-size="18" font-weight="400" font-style="normal" 
>
<text fill="#4e79a7" fill-opacity="1" stroke="none" xml:space="preserve" x="817.016" y="41" font-family="Arial" font-size="18" font-weight="400" font-style="normal" 
 >Stripes</text>
</g>
</g>

<g >
<g fill="none" stroke="#4e79a7" stroke-opacity="1" stroke-width="1" stroke-linecap="square" stroke-linejoin="bevel" transform="matrix(1,0,0,1,0,670)"
font-family="Arial" font-size="18" font-weight="400" font-style="normal" 
>
</g>
</g>

<g  clip-path="url(#clip1)" 
>
<g fill="none" stroke="#4e79a7" stroke-opacity="1" stroke-width="1" stroke-linecap="square" stroke-linejoin="bevel" transform="matrix(1,0,0,1,0,101)"
font-family="Arial" font-size="18" font-weight="400" font-style="normal" 
>
</g>
</g>

<clipPath id ="clip2" >
<rect x="0" y="0" height="570" width="911" transform="matrix(1,0,0,1,0,101)" />
</clipPath>
<g  clip-path="url(#clip2)" 
>
<g fill="none" stroke="#4e79a7" stroke-opacity="1" stroke-width="1" stroke-linecap="square" stroke-linejoin="bevel" transform="matrix(1,0,0,1,0,101)"
font-family="Arial" font-size="18" font-weight="400" font-style="normal" 
>
</g>
</g>

<clipPath id ="clip3" >
<rect x="0" y="0" height="570" width="911" transform="matrix(1,0,0,1,0,101)" />
</clipPath>
<g  clip-path="url(#clip3)" 
>
<g fill="none" stroke="#4e79a7" stroke-opacity="1" stroke-width="1" stroke-linecap="square" stroke-linejoin="bevel" transform="matrix(1,0,0,1,0,101)"
font-family="Arial" font-size="18" font-weight="400" font-style="normal" 
>
</g>
</g>

<g  clip-path="url(#clip3)" 
>
<g fill="#ffffff" fill-opacity="1" stroke="none" transform="matrix(1,0,0,1,0,101)"
font-family="Arial" font-size="18" font-weight="400" font-style="normal" 
>
<rect x="0" y="0" width="911" height="570"/>
</g>
</g>

<g  clip-path="url(#clip3)" 
>
<g fill="#ffffff" fill-opacity="1" stroke="none" transform="matrix(1,0,0,1,0,101)"
font-family="Arial" font-size="18" font-weight="400" font-style="normal" 
>
<rect x="0" y="0" width="911" height="570"/>
</g>
</g>

<clipPath id ="clip4" >
<rect x="0" y="0" height="570" width="910" transform="matrix(1,0,0,1,0,101)" />
</clipPath>
<g  clip-path="url(#clip4)" 
>
<g fill="none" stroke="#4e79a7" stroke-opacity="1" stroke-width="1" stroke-linecap="square" stroke-linejoin="bevel" transform="matrix(1,0,0,1,0,101)"
font-family="Arial" font-size="18" font-weight="400" font-style="normal" 
>
</g>
</g>

<g  clip-path="url(#clip4)" 
>
<g fill="#ffffff" fill-opacity="1" stroke="none" transform="matrix(1,0,0,1,0,101)"
font-family="Arial" font-size="18" font-weight="400" font-style="normal" 
>
<rect x="0" y="0" width="911" height="570"/>
</g>
</g>

<clipPath id ="clip5" >
<rect x="0" y="0" height="570" width="911" transform="matrix(1,0,0,1,0,101)" />
</clipPath>
<g  clip-path="url(#clip5)" 
>
<g fill="none" stroke="#4e79a7" stroke-opacity="1" stroke-width="1" stroke-linecap="square" stroke-linejoin="bevel" transform="matrix(1,0,0,1,0,101)"
font-family="Arial" font-size="18" font-weight="400" font-style="normal" 
>
</g>
</g>

<clipPath id ="clip6" >
<rect x="0" y="0" height="570" width="911" transform="matrix(1,0,0,1,0,101)" />
</clipPath>
<g  clip-path="url(#clip6)" 
>
<g fill="none" stroke="#4e79a7" stroke-opacity="1" stroke-width="1" stroke-linecap="square" stroke-linejoin="bevel" transform="matrix(1,0,0,1,0,101)"
font-family="Arial" font-size="18" font-weight="400" font-style="normal" 
>
</g>
</g>

<clipPath id ="clip7" >
<rect x="0" y="0" height="570" width="911" transform="matrix(1,0,0,1,0,101)" />
</clipPath>
<g  clip-path="url(#clip7)" 
>
<g fill="none" stroke="#4e79a7" stroke-opacity="1" stroke-width="1" stroke-linecap="square" stroke-linejoin="bevel" transform="matrix(1,0,0,1,0,101)"
font-family="Arial" font-size="18" font-weight="400" font-style="normal" 
>
</g>
</g>

<clipPath id ="clip8" >
<rect x="0" y="0" height="570" width="911" transform="matrix(1,0,0,1,0,101)" />
</clipPath>
<g  clip-path="url(#clip8)" 
>
<g fill="none" stroke="#4e79a7" stroke-opacity="1" stroke-width="1" stroke-linecap="square" stroke-linejoin="bevel" transform="matrix(1,0,0,1,0,101)"
font-family="Arial" font-size="18" font-weight="400" font-style="normal" 
>
</g>
</g>

<g  clip-path="url(#clip8)" 
>
<g fill="#ffffff" fill-opacity="1" stroke="none" transform="matrix(1,0,0,1,0,101)"
font-family="Arial" font-size="18" font-weight="400" font-style="normal" 
>
<rect x="0" y="0" width="911" height="570"/>
</g>
</g>

<clipPath id ="clip9" >
<rect x="0" y="0" height="570" width="911" transform="matrix(1,0,0,1,0,101)" />
</clipPath>
<g  clip-path="url(#clip9)" 
>
<g fill="none" stroke="#4e79a7" stroke-opacity="1" stroke-width="1" stroke-linecap="square" stroke-linejoin="bevel" transform="matrix(1,0,0,1,0,101)"
font-family="Arial" font-size="18" font-weight="400" font-style="normal" 
>
</g>
</g>

<clipPath id ="clip10" >
<rect x="0" y="0" height="569" width="910" transform="matrix(1,0,0,1,0,101)" />
</clipPath>
<g  clip-path="url(#clip10)" 
>
<g fill="none" stroke="#4e79a7" stroke-opacity="1" stroke-width="1" stroke-linecap="square" stroke-linejoin="bevel" transform="matrix(1,0,0,1,0,101)"
font-family="Arial" font-size="18" font-weight="400" font-style="normal" 
>
</g>
</g>

<clipPath id ="clip11" >
<rect x="0" y="0" height="570" width="911" transform="matrix(1,0,0,1,0,101)" />
</clipPath>
<g  clip-path="url(#clip11)" 
>
<g fill="none" stroke="#4e79a7" stroke-opacity="1" stroke-width="1" stroke-linecap="square" stroke-linejoin="bevel" transform="matrix(1,0,0,1,0,101)"
font-family="Arial" font-size="18" font-weight="400" font-style="normal" 
>
</g>
</g>

<clipPath id ="clip12" >
<rect x="0" y="0" height="569" width="910" transform="matrix(1,0,0,1,0,101)" />
</clipPath>
<g  clip-path="url(#clip12)" 
>
<g fill="none" stroke="#4e79a7" stroke-opacity="1" stroke-width="1" stroke-linecap="square" stroke-linejoin="bevel" transform="matrix(1,0,0,1,0,101)"
font-family="Arial" font-size="18" font-weight="400" font-style="normal" 
>
</g>
</g>

<g  clip-path="url(#clip12)" 
>
<g fill="none" stroke="#555555" stroke-opacity="1" stroke-width="5" stroke-linecap="square" stroke-linejoin="bevel" transform="matrix(1,0,0,1,0,101)"
font-family="Arial" font-size="18" font-weight="400" font-style="normal" 
>
<polyline fill="none" vector-effect="none" points="0,569 910,569 " />
</g>
</g>

<clipPath id ="clip13" >
<rect x="0" y="0" height="570" width="911" transform="matrix(1,0,0,1,0,101)" />
</clipPath>
<g  clip-path="url(#clip13)" 
>
<g fill="none" stroke="#555555" stroke-opacity="1" stroke-width="5" stroke-linecap="square" stroke-linejoin="bevel" transform="matrix(1,0,0,1,0,101)"
font-family="Arial" font-size="18" font-weight="400" font-style="normal" 
>
</g>
</g>

<clipPath id ="clip14" >
<rect x="0" y="0" height="569" width="910" transform="matrix(1,0,0,1,0,101)" />
</clipPath>
<g  clip-path="url(#clip14)" 
>
<g fill="none" stroke="#555555" stroke-opacity="1" stroke-width="5" stroke-linecap="square" stroke-linejoin="bevel" transform="matrix(1,0,0,1,0,101)"
font-family="Arial" font-size="18" font-weight="400" font-style="normal" 
>
</g>
</g>

<clipPath id ="clip15" >
<rect x="0" y="0" height="570" width="911" transform="matrix(1,0,0,1,0,101)" />
</clipPath>
<g  clip-path="url(#clip15)" 
>
<g fill="none" stroke="#555555" stroke-opacity="1" stroke-width="5" stroke-linecap="square" stroke-linejoin="bevel" transform="matrix(1,0,0,1,0,101)"
font-family="Arial" font-size="18" font-weight="400" font-style="normal" 
>
</g>
</g>

<clipPath id ="clip16" >
<rect x="0" y="0" height="569" width="910" transform="matrix(1,0,0,1,0,101)" />
</clipPath>
<g  clip-path="url(#clip16)" 
>
<g fill="none" stroke="#555555" stroke-opacity="1" stroke-width="5" stroke-linecap="square" stroke-linejoin="bevel" transform="matrix(1,0,0,1,0,101)"
font-family="Arial" font-size="18" font-weight="400" font-style="normal" 
>
</g>
</g>

<clipPath id ="clip17" >
<rect x="0" y="0" height="570" width="911" transform="matrix(1,0,0,1,0,101)" />
</clipPath>
<g  clip-path="url(#clip17)" 
>
<g fill="none" stroke="#555555" stroke-opacity="1" stroke-width="5" stroke-linecap="square" stroke-linejoin="bevel" transform="matrix(1,0,0,1,0,101)"
font-family="Arial" font-size="18" font-weight="400" font-style="normal" 
>
</g>
</g>

<clipPath id ="clip18" >
<rect x="0" y="0" height="570" width="911" transform="matrix(1,0,0,1,0,101)" />
</clipPath>
<g  clip-path="url(#clip18)" 
>
<g fill="none" stroke="#555555" stroke-opacity="1" stroke-width="5" stroke-linecap="square" stroke-linejoin="bevel" transform="matrix(1,0,0,1,0,101)"
font-family="Arial" font-size="18" font-weight="400" font-style="normal" 
>
</g>
</g>

<clipPath id ="clip19" >
<rect x="0" y="0" height="569" width="910" transform="matrix(1,0,0,1,0,101)" />
</clipPath>
<g  clip-path="url(#clip19)" 
>
<g fill="none" stroke="#555555" stroke-opacity="1" stroke-width="5" stroke-linecap="square" stroke-linejoin="bevel" transform="matrix(1,0,0,1,0,101)"
font-family="Arial" font-size="18" font-weight="400" font-style="normal" 
>
</g>
</g>

<clipPath id ="clip20" >
<rect x="0" y="0" height="570" width="911" transform="matrix(1,0,0,1,0,101)" />
</clipPath>
<g  clip-path="url(#clip20)" 
>
<g fill="none" stroke="#555555" stroke-opacity="1" stroke-width="5" stroke-linecap="square" stroke-linejoin="bevel" transform="matrix(1,0,0,1,0,101)"
font-family="Arial" font-size="18" font-weight="400" font-style="normal" 
>
</g>
</g>

<clipPath id ="clip21" >
<rect x="0" y="0" height="569" width="910" transform="matrix(1,0,0,1,0,101)" />
</clipPath>
<g  clip-path="url(#clip21)" 
>
<g fill="none" stroke="#555555" stroke-opacity="1" stroke-width="5" stroke-linecap="square" stroke-linejoin="bevel" transform="matrix(1,0,0,1,0,101)"
font-family="Arial" font-size="18" font-weight="400" font-style="normal" 
>
</g>
</g>

<clipPath id ="clip22" >
<rect x="0" y="0" height="570" width="911" transform="matrix(1,0,0,1,0,101)" />
</clipPath>
<g  clip-path="url(#clip22)" 
>
<g fill="none" stroke="#555555" stroke-opacity="1" stroke-width="5" stroke-linecap="square" stroke-linejoin="bevel" transform="matrix(1,0,0,1,0,101)"
font-family="Arial" font-size="18" font-weight="400" font-style="normal" 
>
</g>
</g>

<clipPath id ="clip23" >
<rect x="0" y="0" height="569" width="910" transform="matrix(1,0,0,1,0,101)" />
</clipPath>
<g  clip-path="url(#clip23)" 
>
<g fill="none" stroke="#555555" stroke-opacity="1" stroke-width="5" stroke-linecap="square" stroke-linejoin="bevel" transform="matrix(1,0,0,1,0,101)"
font-family="Arial" font-size="18" font-weight="400" font-style="normal" 
>
</g>
</g>

<g  clip-path="url(#clip23)" 
>
<g fill="#4e79a7" fill-opacity="1" stroke="none" transform="matrix(1,0,0,1,0,101)"
font-family="Arial" font-size="18" font-weight="400" font-style="normal" 
>
<rect x="820" y="422" width="51" height="147"/>
</g>
</g>

<g  clip-path="url(#clip23)" 
>
<g fill="#4e79a7" fill-opacity="1" stroke="none" transform="matrix(1,0,0,1,0,101)"
font-family="Arial" font-size="18" font-weight="400" font-style="normal" 
>
<rect x="690" y="316" width="51" height="253"/>
</g>
</g>

<g  clip-path="url(#clip23)" 
>
<g fill="#4e79a7" fill-opacity="1" stroke="none" transform="matrix(1,0,0,1,0,101)"
font-family="Arial" font-size="18" font-weight="400" font-style="normal" 
>
<rect x="560" y="530" width="51" height="39"/>
</g>
</g>

<g  clip-path="url(#clip23)" 
>
<g fill="#4e79a7" fill-opacity="1" stroke="none" transform="matrix(1,0,0,1,0,101)"
font-family="Arial" font-size="18" font-weight="400" font-style="normal" 
>
<rect x="430" y="59" width="51" height="510"/>
</g>
</g>

<g  clip-path="url(#clip23)" 
>
<g fill="#4e79a7" fill-opacity="1" stroke="none" transform="matrix(1,0,0,1,0,101)"
font-family="Arial" font-size="18" font-weight="400" font-style="normal" 
>
<rect x="300" y="87" width="51" height="482"/>
</g>
</g>

<g  clip-path="url(#clip23)" 
>
<g fill="#4e79a7" fill-opacity="1" stroke="none" transform="matrix(1,0,0,1,0,101)"
font-family="Arial" font-size="18" font-weight="400" font-style="normal" 
>
<rect x="170" y="101" width="51" height="468"/>
</g>
</g>

<g  clip-path="url(#clip23)" 
>
<g fill="#4e79a7" fill-opacity="1" stroke="none" transform="matrix(1,0,0,1,0,101)"
font-family="Arial" font-size="18" font-weight="400" font-style="normal" 
>
<rect x="40" y="235" width="51" height="334"/>
</g>
</g>

<clipPath id ="clip24" >
<rect x="0" y="0" height="570" width="911" transform="matrix(1,0,0,1,0,101)" />
</clipPath>
<g  clip-path="url(#clip24)" 
>
<g fill="#4e79a7" fill-opacity="1" stroke="none" transform="matrix(1,0,0,1,0,101)"
font-family="Arial" font-size="18" font-weight="400" font-style="normal" 
>
</g>
</g>

<clipPath id ="clip25" >
<rect x="0" y="0" height="569" width="910" transform="matrix(1,0,0,1,0,101)" />
</clipPath>
<g  clip-path="url(#clip25)" 
>
<g fill="#4e79a7" fill-opacity="1" stroke="none" transform="matrix(1,0,0,1,0,101)"
font-family="Arial" font-size="18" font-weight="400" font-style="normal" 
>
</g>
</g>

<g  clip-path="url(#clip25)" 
>
<g fill="none" stroke="#4e79a7" stroke-opacity="1" stroke-width="1" stroke-linecap="square" stroke-linejoin="bevel" transform="matrix(1,0,0,1,0,101)"
font-family="Arial" font-size="24" font-weight="700" font-style="normal" 
>
<text fill="#4e79a7" fill-opacity="1" stroke="none" xml:space="preserve" x="51" y="226" font-family="Arial" font-size="24" font-weight="700" font-style="normal" 
 >41</text>
</g>
</g>

<g  clip-path="url(#clip25)" 
>
<g fill="none" stroke="#4e79a7" stroke-opacity="1" stroke-width="1" stroke-linecap="square" stroke-linejoin="bevel" transform="matrix(1,0,0,1,0,101)"
font-family="Arial" font-size="24" font-weight="700" font-style="normal" 
>
<text fill="#4e79a7" fill-opacity="1" stroke="none" xml:space="preserve" x="181" y="92" font-family="Arial" font-size="24" font-weight="700" font-style="normal" 
 >57</text>
</g>
</g>

<g  clip-path="url(#clip25)" 
>
<g fill="none" stroke="#4e79a7" stroke-opacity="1" stroke-width="1" stroke-linecap="square" stroke-linejoin="bevel" transform="matrix(1,0,0,1,0,101)"
font-family="Arial" font-size="24" font-weight="700" font-style="normal" 
>
<text fill="#4e79a7" fill-opacity="1" stroke="none" xml:space="preserve" x="311" y="78" font-family="Arial" font-size="24" font-weight="700" font-style="normal" 
 >59</text>
</g>
</g>

<g  clip-path="url(#clip25)" 
>
<g fill="none" stroke="#4e79a7" stroke-opacity="1" stroke-width="1" stroke-linecap="square" stroke-linejoin="bevel" transform="matrix(1,0,0,1,0,101)"
font-family="Arial" font-size="24" font-weight="700" font-style="normal" 
>
<text fill="#4e79a7" fill-opacity="1" stroke="none" xml:space="preserve" x="441" y="50" font-family="Arial" font-size="24" font-weight="700" font-style="normal" 
 >63</text>
</g>
</g>

<g  clip-path="url(#clip25)" 
>
<g fill="none" stroke="#4e79a7" stroke-opacity="1" stroke-width="1" stroke-linecap="square" stroke-linejoin="bevel" transform="matrix(1,0,0,1,0,101)"
font-family="Arial" font-size="24" font-weight="700" font-style="normal" 
>
<text fill="#4e79a7" fill-opacity="1" stroke="none" xml:space="preserve" x="701" y="307" font-family="Arial" font-size="24" font-weight="700" font-style="normal" 
 >31</text>
</g>
</g>

<g  clip-path="url(#clip25)" 
>
<g fill="none" stroke="#4e79a7" stroke-opacity="1" stroke-width="1" stroke-linecap="square" stroke-linejoin="bevel" transform="matrix(1,0,0,1,0,101)"
font-family="Arial" font-size="24" font-weight="700" font-style="normal" 
>
<text fill="#4e79a7" fill-opacity="1" stroke="none" xml:space="preserve" x="831" y="413" font-family="Arial" font-size="24" font-weight="700" font-style="normal" 
 >18</text>
</g>
</g>

<g  clip-path="url(#clip25)" 
>
<g fill="none" stroke="#4e79a7" stroke-opacity="1" stroke-width="1" stroke-linecap="square" stroke-linejoin="bevel" transform="matrix(1,0,0,1,0,101)"
font-family="Arial" font-size="24" font-weight="700" font-style="normal" 
>
<text fill="#4e79a7" fill-opacity="1" stroke="none" xml:space="preserve" x="578" y="521" font-family="Arial" font-size="24" font-weight="700" font-style="normal" 
 >5</text>
</g>
</g>

<clipPath id ="clip26" >
<rect x="0" y="0" height="570" width="911" transform="matrix(1,0,0,1,0,101)" />
</clipPath>
<g  clip-path="url(#clip26)" 
>
<g fill="none" stroke="#4e79a7" stroke-opacity="1" stroke-width="1" stroke-linecap="square" stroke-linejoin="bevel" transform="matrix(1,0,0,1,0,101)"
font-family="Arial" font-size="24" font-weight="700" font-style="normal" 
>
</g>
</g>

<clipPath id ="clip27" >
<rect x="0" y="0" height="570" width="911" transform="matrix(1,0,0,1,0,101)" />
</clipPath>
<g  clip-path="url(#clip27)" 
>
<g fill="none" stroke="#4e79a7" stroke-opacity="1" stroke-width="1" stroke-linecap="square" stroke-linejoin="bevel" transform="matrix(1,0,0,1,0,101)"
font-family="Arial" font-size="24" font-weight="700" font-style="normal" 
>
</g>
</g>

<clipPath id ="clip28" >
<rect x="0" y="0" height="569" width="910" transform="matrix(1,0,0,1,0,101)" />
</clipPath>
<g  clip-path="url(#clip28)" 
>
<g fill="none" stroke="#4e79a7" stroke-opacity="1" stroke-width="1" stroke-linecap="square" stroke-linejoin="bevel" transform="matrix(1,0,0,1,0,101)"
font-family="Arial" font-size="24" font-weight="700" font-style="normal" 
>
</g>
</g>

<clipPath id ="clip29" >
<rect x="0" y="0" height="570" width="911" transform="matrix(1,0,0,1,0,101)" />
</clipPath>
<g  clip-path="url(#clip29)" 
>
<g fill="none" stroke="#4e79a7" stroke-opacity="1" stroke-width="1" stroke-linecap="square" stroke-linejoin="bevel" transform="matrix(1,0,0,1,0,101)"
font-family="Arial" font-size="24" font-weight="700" font-style="normal" 
>
</g>
</g>

<clipPath id ="clip30" >
<rect x="0" y="0" height="569" width="910" transform="matrix(1,0,0,1,0,101)" />
</clipPath>
<g  clip-path="url(#clip30)" 
>
<g fill="none" stroke="#4e79a7" stroke-opacity="1" stroke-width="1" stroke-linecap="square" stroke-linejoin="bevel" transform="matrix(1,0,0,1,0,101)"
font-family="Arial" font-size="24" font-weight="700" font-style="normal" 
>
</g>
</g>

<clipPath id ="clip31" >
<rect x="0" y="0" height="570" width="911" transform="matrix(1,0,0,1,0,101)" />
</clipPath>
<g  clip-path="url(#clip31)" 
>
<g fill="none" stroke="#4e79a7" stroke-opacity="1" stroke-width="1" stroke-linecap="square" stroke-linejoin="bevel" transform="matrix(1,0,0,1,0,101)"
font-family="Arial" font-size="24" font-weight="700" font-style="normal" 
>
</g>
</g>

<clipPath id ="clip32" >
<rect x="0" y="0" height="569" width="910" transform="matrix(1,0,0,1,0,101)" />
</clipPath>
<g  clip-path="url(#clip32)" 
>
<g fill="none" stroke="#4e79a7" stroke-opacity="1" stroke-width="1" stroke-linecap="square" stroke-linejoin="bevel" transform="matrix(1,0,0,1,0,101)"
font-family="Arial" font-size="24" font-weight="700" font-style="normal" 
>
</g>
</g>

<clipPath id ="clip33" >
<rect x="0" y="0" height="570" width="911" transform="matrix(1,0,0,1,0,101)" />
</clipPath>
<g  clip-path="url(#clip33)" 
>
<g fill="none" stroke="#4e79a7" stroke-opacity="1" stroke-width="1" stroke-linecap="square" stroke-linejoin="bevel" transform="matrix(1,0,0,1,0,101)"
font-family="Arial" font-size="24" font-weight="700" font-style="normal" 
>
</g>
</g>

<clipPath id ="clip34" >
<rect x="0" y="0" height="569" width="910" transform="matrix(1,0,0,1,0,101)" />
</clipPath>
<g  clip-path="url(#clip34)" 
>
<g fill="none" stroke="#4e79a7" stroke-opacity="1" stroke-width="1" stroke-linecap="square" stroke-linejoin="bevel" transform="matrix(1,0,0,1,0,101)"
font-family="Arial" font-size="24" font-weight="700" font-style="normal" 
>
</g>
</g>

<clipPath id ="clip35" >
<rect x="0" y="0" height="570" width="911" transform="matrix(1,0,0,1,0,101)" />
</clipPath>
<g  clip-path="url(#clip35)" 
>
<g fill="none" stroke="#4e79a7" stroke-opacity="1" stroke-width="1" stroke-linecap="square" stroke-linejoin="bevel" transform="matrix(1,0,0,1,0,101)"
font-family="Arial" font-size="24" font-weight="700" font-style="normal" 
>
</g>
</g>

<clipPath id ="clip36" >
<rect x="0" y="0" height="570" width="911" transform="matrix(1,0,0,1,0,101)" />
</clipPath>
<g  clip-path="url(#clip36)" 
>
<g fill="none" stroke="#4e79a7" stroke-opacity="1" stroke-width="1" stroke-linecap="square" stroke-linejoin="bevel" transform="matrix(1,0,0,1,0,101)"
font-family="Arial" font-size="24" font-weight="700" font-style="normal" 
>
</g>
</g>

<clipPath id ="clip37" >
<rect x="0" y="0" height="569" width="910" transform="matrix(1,0,0,1,0,101)" />
</clipPath>
<g  clip-path="url(#clip37)" 
>
<g fill="none" stroke="#4e79a7" stroke-opacity="1" stroke-width="1" stroke-linecap="square" stroke-linejoin="bevel" transform="matrix(1,0,0,1,0,101)"
font-family="Arial" font-size="24" font-weight="700" font-style="normal" 
>
</g>
</g>

<clipPath id ="clip38" >
<rect x="0" y="0" height="570" width="911" transform="matrix(1,0,0,1,0,101)" />
</clipPath>
<g  clip-path="url(#clip38)" 
>
<g fill="none" stroke="#4e79a7" stroke-opacity="1" stroke-width="1" stroke-linecap="square" stroke-linejoin="bevel" transform="matrix(1,0,0,1,0,101)"
font-family="Arial" font-size="24" font-weight="700" font-style="normal" 
>
</g>
</g>

<clipPath id ="clip39" >
<rect x="0" y="0" height="569" width="910" transform="matrix(1,0,0,1,0,101)" />
</clipPath>
<g  clip-path="url(#clip39)" 
>
<g fill="none" stroke="#4e79a7" stroke-opacity="1" stroke-width="1" stroke-linecap="square" stroke-linejoin="bevel" transform="matrix(1,0,0,1,0,101)"
font-family="Arial" font-size="24" font-weight="700" font-style="normal" 
>
</g>
</g>

<clipPath id ="clip40" >
<rect x="0" y="0" height="570" width="911" transform="matrix(1,0,0,1,0,101)" />
</clipPath>
<g  clip-path="url(#clip40)" 
>
<g fill="none" stroke="#4e79a7" stroke-opacity="1" stroke-width="1" stroke-linecap="square" stroke-linejoin="bevel" transform="matrix(1,0,0,1,0,101)"
font-family="Arial" font-size="24" font-weight="700" font-style="normal" 
>
</g>
</g>

<clipPath id ="clip41" >
<rect x="0" y="0" height="569" width="910" transform="matrix(1,0,0,1,0,101)" />
</clipPath>
<g  clip-path="url(#clip41)" 
>
<g fill="none" stroke="#4e79a7" stroke-opacity="1" stroke-width="1" stroke-linecap="square" stroke-linejoin="bevel" transform="matrix(1,0,0,1,0,101)"
font-family="Arial" font-size="24" font-weight="700" font-style="normal" 
>
</g>
</g>

<clipPath id ="clip42" >
<rect x="0" y="0" height="570" width="911" transform="matrix(1,0,0,1,0,101)" />
</clipPath>
<g  clip-path="url(#clip42)" 
>
<g fill="none" stroke="#4e79a7" stroke-opacity="1" stroke-width="1" stroke-linecap="square" stroke-linejoin="bevel" transform="matrix(1,0,0,1,0,101)"
font-family="Arial" font-size="24" font-weight="700" font-style="normal" 
>
</g>
</g>

<clipPath id ="clip43" >
<rect x="0" y="0" height="569" width="910" transform="matrix(1,0,0,1,0,101)" />
</clipPath>
<g  clip-path="url(#clip43)" 
>
<g fill="none" stroke="#4e79a7" stroke-opacity="1" stroke-width="1" stroke-linecap="square" stroke-linejoin="bevel" transform="matrix(1,0,0,1,0,101)"
font-family="Arial" font-size="24" font-weight="700" font-style="normal" 
>
</g>
</g>

<clipPath id ="clip44" >
<rect x="0" y="0" height="570" width="911" transform="matrix(1,0,0,1,0,101)" />
</clipPath>
<g  clip-path="url(#clip44)" 
>
<g fill="none" stroke="#4e79a7" stroke-opacity="1" stroke-width="1" stroke-linecap="square" stroke-linejoin="bevel" transform="matrix(1,0,0,1,0,101)"
font-family="Arial" font-size="24" font-weight="700" font-style="normal" 
>
</g>
</g>

<clipPath id ="clip45" >
<rect x="0" y="0" height="570" width="911" transform="matrix(1,0,0,1,0,101)" />
</clipPath>
<g  clip-path="url(#clip45)" 
>
<g fill="none" stroke="#4e79a7" stroke-opacity="1" stroke-width="1" stroke-linecap="square" stroke-linejoin="bevel" transform="matrix(1,0,0,1,0,101)"
font-family="Arial" font-size="24" font-weight="700" font-style="normal" 
>
</g>
</g>

<clipPath id ="clip46" >
<rect x="0" y="0" height="569" width="910" transform="matrix(1,0,0,1,0,101)" />
</clipPath>
<g  clip-path="url(#clip46)" 
>
<g fill="none" stroke="#4e79a7" stroke-opacity="1" stroke-width="1" stroke-linecap="square" stroke-linejoin="bevel" transform="matrix(1,0,0,1,0,101)"
font-family="Arial" font-size="24" font-weight="700" font-style="normal" 
>
</g>
</g>

<clipPath id ="clip47" >
<rect x="0" y="0" height="570" width="911" transform="matrix(1,0,0,1,0,101)" />
</clipPath>
<g  clip-path="url(#clip47)" 
>
<g fill="none" stroke="#4e79a7" stroke-opacity="1" stroke-width="1" stroke-linecap="square" stroke-linejoin="bevel" transform="matrix(1,0,0,1,0,101)"
font-family="Arial" font-size="24" font-weight="700" font-style="normal" 
>
</g>
</g>

<clipPath id ="clip48" >
<rect x="0" y="0" height="569" width="910" transform="matrix(1,0,0,1,0,101)" />
</clipPath>
<g  clip-path="url(#clip48)" 
>
<g fill="none" stroke="#4e79a7" stroke-opacity="1" stroke-width="1" stroke-linecap="square" stroke-linejoin="bevel" transform="matrix(1,0,0,1,0,101)"
font-family="Arial" font-size="24" font-weight="700" font-style="normal" 
>
</g>
</g>

<clipPath id ="clip49" >
<rect x="0" y="0" height="570" width="911" transform="matrix(1,0,0,1,0,101)" />
</clipPath>
<g  clip-path="url(#clip49)" 
>
<g fill="none" stroke="#4e79a7" stroke-opacity="1" stroke-width="1" stroke-linecap="square" stroke-linejoin="bevel" transform="matrix(1,0,0,1,0,101)"
font-family="Arial" font-size="24" font-weight="700" font-style="normal" 
>
</g>
</g>

<clipPath id ="clip50" >
<rect x="0" y="0" height="569" width="910" transform="matrix(1,0,0,1,0,101)" />
</clipPath>
<g  clip-path="url(#clip50)" 
>
<g fill="none" stroke="#4e79a7" stroke-opacity="1" stroke-width="1" stroke-linecap="square" stroke-linejoin="bevel" transform="matrix(1,0,0,1,0,101)"
font-family="Arial" font-size="24" font-weight="700" font-style="normal" 
>
</g>
</g>

<clipPath id ="clip51" >
<rect x="0" y="0" height="570" width="911" transform="matrix(1,0,0,1,0,101)" />
</clipPath>
<g  clip-path="url(#clip51)" 
>
<g fill="none" stroke="#4e79a7" stroke-opacity="1" stroke-width="1" stroke-linecap="square" stroke-linejoin="bevel" transform="matrix(1,0,0,1,0,101)"
font-family="Arial" font-size="24" font-weight="700" font-style="normal" 
>
</g>
</g>

<clipPath id ="clip52" >
<rect x="0" y="0" height="569" width="910" transform="matrix(1,0,0,1,0,101)" />
</clipPath>
<g  clip-path="url(#clip52)" 
>
<g fill="none" stroke="#4e79a7" stroke-opacity="1" stroke-width="1" stroke-linecap="square" stroke-linejoin="bevel" transform="matrix(1,0,0,1,0,101)"
font-family="Arial" font-size="24" font-weight="700" font-style="normal" 
>
</g>
</g>

<clipPath id ="clip53" >
<rect x="0" y="0" height="570" width="911" transform="matrix(1,0,0,1,0,101)" />
</clipPath>
<g  clip-path="url(#clip53)" 
>
<g fill="none" stroke="#4e79a7" stroke-opacity="1" stroke-width="1" stroke-linecap="square" stroke-linejoin="bevel" transform="matrix(1,0,0,1,0,101)"
font-family="Arial" font-size="24" font-weight="700" font-style="normal" 
>
</g>
</g>

<clipPath id ="clip54" >
<rect x="0" y="0" height="570" width="911" transform="matrix(1,0,0,1,0,101)" />
</clipPath>
<g  clip-path="url(#clip54)" 
>
<g fill="none" stroke="#4e79a7" stroke-opacity="1" stroke-width="1" stroke-linecap="square" stroke-linejoin="bevel" transform="matrix(1,0,0,1,0,101)"
font-family="Arial" font-size="24" font-weight="700" font-style="normal" 
>
</g>
</g>

<clipPath id ="clip55" >
<rect x="0" y="0" height="569" width="910" transform="matrix(1,0,0,1,0,101)" />
</clipPath>
<g  clip-path="url(#clip55)" 
>
<g fill="none" stroke="#4e79a7" stroke-opacity="1" stroke-width="1" stroke-linecap="square" stroke-linejoin="bevel" transform="matrix(1,0,0,1,0,101)"
font-family="Arial" font-size="24" font-weight="700" font-style="normal" 
>
</g>
</g>

<clipPath id ="clip56" >
<rect x="0" y="0" height="570" width="911" transform="matrix(1,0,0,1,0,101)" />
</clipPath>
<g  clip-path="url(#clip56)" 
>
<g fill="none" stroke="#4e79a7" stroke-opacity="1" stroke-width="1" stroke-linecap="square" stroke-linejoin="bevel" transform="matrix(1,0,0,1,0,101)"
font-family="Arial" font-size="24" font-weight="700" font-style="normal" 
>
</g>
</g>

<clipPath id ="clip57" >
<rect x="0" y="0" height="569" width="910" transform="matrix(1,0,0,1,0,101)" />
</clipPath>
<g  clip-path="url(#clip57)" 
>
<g fill="none" stroke="#4e79a7" stroke-opacity="1" stroke-width="1" stroke-linecap="square" stroke-linejoin="bevel" transform="matrix(1,0,0,1,0,101)"
font-family="Arial" font-size="24" font-weight="700" font-style="normal" 
>
</g>
</g>

<clipPath id ="clip58" >
<rect x="0" y="0" height="570" width="911" transform="matrix(1,0,0,1,0,101)" />
</clipPath>
<g  clip-path="url(#clip58)" 
>
<g fill="none" stroke="#4e79a7" stroke-opacity="1" stroke-width="1" stroke-linecap="square" stroke-linejoin="bevel" transform="matrix(1,0,0,1,0,101)"
font-family="Arial" font-size="24" font-weight="700" font-style="normal" 
>
</g>
</g>

<clipPath id ="clip59" >
<rect x="0" y="0" height="569" width="910" transform="matrix(1,0,0,1,0,101)" />
</clipPath>
<g  clip-path="url(#clip59)" 
>
<g fill="none" stroke="#4e79a7" stroke-opacity="1" stroke-width="1" stroke-linecap="square" stroke-linejoin="bevel" transform="matrix(1,0,0,1,0,101)"
font-family="Arial" font-size="24" font-weight="700" font-style="normal" 
>
</g>
</g>

<clipPath id ="clip60" >
<rect x="0" y="0" height="570" width="911" transform="matrix(1,0,0,1,0,101)" />
</clipPath>
<g  clip-path="url(#clip60)" 
>
<g fill="none" stroke="#4e79a7" stroke-opacity="1" stroke-width="1" stroke-linecap="square" stroke-linejoin="bevel" transform="matrix(1,0,0,1,0,101)"
font-family="Arial" font-size="24" font-weight="700" font-style="normal" 
>
</g>
</g>

<clipPath id ="clip61" >
<rect x="0" y="0" height="569" width="910" transform="matrix(1,0,0,1,0,101)" />
</clipPath>
<g  clip-path="url(#clip61)" 
>
<g fill="none" stroke="#4e79a7" stroke-opacity="1" stroke-width="1" stroke-linecap="square" stroke-linejoin="bevel" transform="matrix(1,0,0,1,0,101)"
font-family="Arial" font-size="24" font-weight="700" font-style="normal" 
>
</g>
</g>

<clipPath id ="clip62" >
<rect x="0" y="0" height="570" width="911" transform="matrix(1,0,0,1,0,101)" />
</clipPath>
<g  clip-path="url(#clip62)" 
>
<g fill="none" stroke="#4e79a7" stroke-opacity="1" stroke-width="1" stroke-linecap="square" stroke-linejoin="bevel" transform="matrix(1,0,0,1,0,101)"
font-family="Arial" font-size="24" font-weight="700" font-style="normal" 
>
</g>
</g>

<g >
<g fill="none" stroke="#4e79a7" stroke-opacity="1" stroke-width="1" stroke-linecap="square" stroke-linejoin="bevel" transform="matrix(1,0,0,1,0,101)"
font-family="Arial" font-size="24" font-weight="700" font-style="normal" 
>
</g>
</g>

<g >
<g fill="none" stroke="#333333" stroke-opacity="1" stroke-width="1" stroke-linecap="square" stroke-linejoin="bevel" transform="matrix(1,0,0,1,0,0)"
font-family="Buckeye Serif 2 Black" font-size="36" font-weight="400" font-style="normal" 
>
<text fill="#333333" fill-opacity="1" stroke="none" xml:space="preserve" x="4" y="40" font-family="Buckeye Serif 2 Black" font-size="36" font-weight="400" font-style="normal" 
 >Average Peak US Chart Position</text>
</g>
</g>

<g >
<g fill="none" stroke="#333333" stroke-opacity="1" stroke-width="1" stroke-linecap="square" stroke-linejoin="bevel" transform="matrix(1,0,0,1,0,0)"
font-family="Buckeye Sans 2" font-size="30" font-weight="400" font-style="normal" 
>
<text fill="#333333" fill-opacity="1" stroke="none" xml:space="preserve" x="4" y="82" font-family="Buckeye Sans 2" font-size="30" font-weight="400" font-style="normal" 
 >2025 Rock n Roll Hall of Fame Inductees</text>
</g>
</g>
</g>
</svg>
