<?xml version="1.0" encoding="UTF-8"?><svg id="large_outlines" xmlns="http://www.w3.org/2000/svg" viewBox="0 0 80 80"><path d="m36.36,72.31l.1,2.91,20.02-.04v-2.89l-3.02-3.02h-14.05l-3.04,3.04Zm16.26-1.04l1.85,1.85v.06l-16.08.03v-.1s1.84-1.84,1.84-1.84h12.39Z" fill="#ba0c2f"/><path d="m61.7,57.71l-.31-1.24c-.04-.14-3.48-13.91-5.57-17.09-1.38-2.1-3.05-3.16-4.97-3.16h-.18c-.49.01-3.16.42-4.28.59l-.85.13v2.06l12.59,18.71h3.57Zm-10.99-19.49h.15c.77,0,1.95.23,3.28,2.26,1.29,1.96,3.57,9.77,4.95,15.09l-11.4-16.94c2.04-.31,2.87-.41,3.01-.41Z" fill="#ba0c2f"/><path d="m42.47,30.77c0,2.21,1.79,4,4,4s4-1.79,4-4-1.79-4-4-4-4,1.79-4,4Zm6,0c0,1.1-.9,2-2,2s-2-.9-2-2,.9-2,2-2,2,.9,2,2Z" fill="#ba0c2f"/><path d="m62.33,4.18l-.92.88c-.42.4-10.36,9.93-12.08,13.32-1.18,2.31-1.24,4.35-.19,6.04.27.45,2.09,2.73,2.64,3.42l.53.67,1.79-1.02,10-20.21-1.77-3.1Zm-9.62,21.62c-1.19-1.51-1.77-2.28-1.86-2.42-.43-.69-.86-1.86.27-4.09,1.07-2.11,6.61-7.85,10.65-11.78l-9.05,18.29Z" fill="#ba0c2f"/><path d="m17.19,28.84l-1.63,3.18,1.25.29c4.26.99,13.28,2.87,16.95,2.87.3,0,.57-.01.8-.04,2.58-.28,4.32-1.34,5.16-3.14.24-.49,1.23-3.49,1.43-4.08l.27-.81-1.83-.94-22.39,2.68Zm20.73,2.3c-.34.73-1.08,1.74-3.57,2.01-.17.02-.37.03-.58.03-3.13,0-10.59-1.49-15.1-2.5l20.27-2.42c-.58,1.73-.93,2.71-1.01,2.88Z" fill="#ba0c2f"/><path d="m51.58,67.3l-2.01-18.44-5.44-7.85-2.72,26.29h10.18Zm-6.02-20.71l2.08,3,1.71,15.71h-5.73l1.94-18.71Z" fill="#ba0c2f"/></svg>